<?xml version="1.0" encoding="UTF-8"?>
<svg id="Layer_2" data-name="Layer 2" xmlns="http://www.w3.org/2000/svg" viewBox="0 0 641.21 50.84">
  <defs>
    <style>
      .cls-1, .cls-2, .cls-3, .cls-4, .cls-5, .cls-6, .cls-7, .cls-8, .cls-9, .cls-10 {
        stroke-width: 0px;
      }

      .cls-1, .cls-8 {
        fill: #fefefe;
      }

      .cls-2 {
        fill: #e41d37;
      }

      .cls-3 {
        fill: #1d488c;
      }

      .cls-3, .cls-6, .cls-8, .cls-9 {
        fill-rule: evenodd;
      }

      .cls-4 {
        fill: #898989;
      }

      .cls-5 {
        fill: #2b2a29;
      }

      .cls-6 {
        fill: #e31e24;
      }

      .cls-7 {
        fill: #fff;
      }

      .cls-9 {
        fill: #a09c9b;
      }

      .cls-10 {
        fill: #ebecec;
      }
    </style>
  </defs>
  <g id="Layer_1-2" data-name="Layer 1">
    <g>
      <rect class="cls-7" x="526.69" y=".32" width="1.75" height="49.33"/>
      <path class="cls-8" d="m438.02,26.55c.16.16.28.47.28.69v7.73c0,.22-.18.4-.4.4h-3.18c-.22,0-.4-.18-.4-.4v-11.72c0-.22.13-.27.28-.12l3.41,3.41Z"/>
      <path class="cls-8" d="m448.96,25.85c-.16-.16-.28-.46-.28-.69v-8.18c0-.22.18-.4.4-.4h3.18c.22,0,.4.18.4.4v12.16c0,.22-.13.27-.28.12l-3.41-3.41Z"/>
      <path class="cls-8" d="m439.98,18.6h0c-3.33,1.05-4.06,4.06-4.06,4.06l-1.63-1.6s-.68-.93-.09-1.68c.45-.83,1.32-1.92,2.81-2.64.48-.23,1.26.17,1.26.17l1.71,1.68Zm12.65,16.04h0l-1.15-4.51-11.09-11.08c-3.33,1.05-4.06,4.06-4.06,4.06l11.08,11.08,4.51,1.15c.52.13.84-.18.7-.71Zm-1.93-.4l-3.14-.72s.56-2.44,3.25-3.25l.72,3.12s-.61.39-.83.85Z"/>
      <path class="cls-8" d="m471.6,33.85h0c.12.34.19.62.22.82.03.2-.01.35-.12.45-.11.1-.29.16-.56.19-.27.02-.64.04-1.11.04s-.87,0-1.14-.02c-.27-.01-.48-.04-.62-.09-.14-.04-.24-.1-.3-.18-.06-.08-.11-.18-.14-.3l-1.25-3.73h-6.98l-1.18,3.63c-.04.13-.09.25-.15.34-.06.09-.16.16-.3.22-.14.05-.33.09-.59.11-.25.02-.59.03-1,.03-.44,0-.79-.01-1.03-.04-.25-.03-.42-.1-.52-.21-.1-.11-.13-.27-.1-.47.03-.2.1-.47.22-.81l5.73-16.49c.06-.16.12-.29.2-.39.08-.1.2-.18.37-.23.17-.05.4-.08.7-.1.3-.01.69-.02,1.18-.02.57,0,1.02,0,1.35.02.33.02.6.05.78.1.19.05.32.13.4.24.08.11.15.25.21.43l5.74,16.48Zm-8.53-13.63h-.02l-2.63,7.9h5.27l-2.63-7.9Z"/>
      <path class="cls-8" d="m485.26,18.22h0c0,.28-.01.51-.04.71-.02.2-.06.35-.11.47-.05.12-.11.21-.18.27-.07.06-.15.09-.24.09h-4.65v14.98c0,.09-.03.18-.09.26-.06.08-.17.14-.31.19-.14.05-.34.09-.58.12-.24.03-.55.04-.91.04s-.67-.01-.91-.04c-.24-.03-.44-.07-.58-.12-.14-.05-.25-.11-.31-.19-.06-.08-.09-.16-.09-.26v-14.98h-4.65c-.1,0-.18-.03-.24-.09-.07-.06-.12-.15-.17-.27-.05-.12-.08-.28-.11-.47-.02-.2-.04-.43-.04-.71s.01-.53.04-.73c.02-.2.06-.36.11-.48.05-.12.11-.21.17-.26.07-.05.15-.08.24-.08h13.1c.09,0,.17.03.24.08.07.05.13.14.18.26.05.12.08.28.11.48.02.2.04.44.04.73m-8.92,18.8c.03-.11.08-.2.16-.28.08-.08.19-.15.34-.2.15-.05.34-.08.59-.1.24-.02.56-.03.94-.03s.68.02.9.06c.22.04.38.09.48.16.1.07.15.16.14.27,0,.11-.04.23-.11.36l-1.41,2.73c-.05.1-.11.18-.17.24-.07.06-.16.12-.28.16-.12.04-.28.07-.47.09-.2.01-.45.02-.75.02s-.55-.01-.72-.04c-.18-.02-.31-.07-.39-.13-.08-.06-.12-.14-.12-.24s.02-.21.06-.34l.82-2.73Z"/>
      <path class="cls-8" d="m492.72,34.74c0,.09-.03.18-.09.26-.06.08-.16.14-.31.19-.14.05-.34.09-.58.12-.24.03-.55.04-.92.04s-.67-.01-.91-.04c-.24-.03-.44-.07-.58-.12-.14-.05-.25-.11-.31-.19-.06-.08-.09-.16-.09-.26v-17.55c0-.1.03-.18.09-.26.06-.08.17-.14.32-.19.15-.05.34-.09.58-.11.24-.03.54-.04.9-.04s.68.01.92.04c.24.03.43.07.58.11.14.05.25.11.31.19.06.08.09.16.09.26v17.55Z"/>
      <path class="cls-8" d="m509.26,33.78c0,.28-.01.51-.04.7-.02.19-.06.34-.11.45-.05.12-.11.2-.18.25-.07.05-.15.08-.24.08h-9.34c-.32,0-.58-.09-.8-.28-.21-.19-.32-.49-.32-.91v-16.2c0-.42.11-.73.32-.91.22-.19.48-.28.8-.28h9.28c.09,0,.16.02.23.07.07.05.12.13.17.25.05.12.08.27.11.46.02.19.04.42.04.71,0,.27-.01.49-.04.68-.02.19-.06.34-.11.45-.05.12-.11.2-.17.25-.07.05-.14.08-.23.08h-6.64v4.54h5.62c.09,0,.16.03.24.08.07.05.13.13.18.24.05.11.08.26.11.45.02.19.04.41.04.68s-.01.51-.04.69c-.02.18-.06.33-.11.44-.05.11-.11.19-.18.24-.07.05-.15.07-.24.07h-5.62v5.24h6.69c.09,0,.17.03.24.08.07.05.13.14.18.25.05.12.08.27.11.45.02.19.04.42.04.7"/>
      <path class="cls-8" d="m438.11,44.23h0c0,.31-.05.59-.16.85-.1.26-.25.48-.45.66-.19.18-.43.33-.71.43-.28.1-.62.15-1.01.15h-.86v2.54s0,.04-.01.06c-.01.02-.03.03-.05.04-.02.01-.06.02-.09.02-.04,0-.09.01-.15.01s-.11,0-.15-.01c-.04,0-.07-.01-.1-.02-.02-.01-.04-.02-.05-.04-.01-.02-.01-.04-.01-.06v-6.21c0-.12.03-.21.1-.25.06-.05.13-.07.19-.07h1.34c.13,0,.26,0,.39.02.13.01.27.04.44.08.17.04.34.11.52.22.17.11.32.24.45.4.12.16.22.33.28.53.07.2.1.42.1.66m-.66.06c0-.29-.06-.53-.17-.73-.11-.2-.25-.35-.41-.45-.16-.1-.33-.16-.51-.18-.18-.03-.34-.04-.5-.04h-.94v2.88h.9c.29,0,.53-.04.72-.11.19-.07.36-.18.49-.31.13-.13.23-.29.3-.47.07-.18.1-.38.1-.6Z"/>
      <path class="cls-8" d="m444.8,48.85h0s0,.05-.01.06c0,.02-.03.03-.05.04-.02.01-.06.02-.1.03-.04,0-.1.01-.16.01-.06,0-.11,0-.14,0-.04,0-.07-.01-.1-.03-.03-.01-.05-.04-.07-.06-.02-.02-.03-.06-.04-.1l-.62-1.61c-.07-.18-.15-.35-.23-.51-.08-.16-.18-.3-.3-.42-.12-.12-.26-.21-.42-.28-.16-.07-.36-.1-.59-.1h-.68v2.99s0,.04-.02.06c-.01.02-.03.03-.05.04-.02.01-.05.02-.09.03-.04,0-.09.01-.15.01-.06,0-.11,0-.15-.01-.04,0-.07-.01-.1-.03-.02,0-.04-.02-.05-.04-.01-.02-.01-.04-.01-.06v-6.21c0-.12.03-.21.1-.26.06-.05.13-.07.19-.07h1.24c.16,0,.3,0,.41.01.11,0,.21.02.29.03.25.05.47.12.66.22.19.1.34.22.47.37.12.15.21.31.27.49.06.18.09.38.09.59s-.03.42-.09.59c-.06.17-.15.32-.26.46-.11.13-.25.25-.4.34-.16.1-.33.18-.52.24.11.05.21.11.3.19.09.08.17.17.25.27.08.11.15.23.22.37.07.14.14.29.2.46l.62,1.55c.04.12.07.2.09.25.01.05.02.08.02.1m-1.1-4.74c0-.28-.06-.52-.19-.72-.13-.2-.34-.34-.63-.42-.1-.03-.21-.05-.32-.06-.12-.01-.27-.02-.45-.02h-.82v2.44h.95c.25,0,.47-.03.66-.09.18-.06.34-.15.46-.26.12-.11.21-.24.27-.39.06-.15.08-.31.08-.48Z"/>
      <path class="cls-8" d="m447.9,48.86s0,.04-.01.06c-.01.02-.03.03-.05.04-.02.01-.06.02-.1.03-.04,0-.09.01-.15.01-.06,0-.11,0-.15-.01-.04,0-.07-.01-.1-.03-.02,0-.04-.02-.05-.04,0-.02-.02-.04-.02-.06v-6.43s0-.04.02-.06c.01-.02.03-.03.06-.04.02,0,.06-.02.1-.03.04,0,.09-.01.14-.01.06,0,.11,0,.15.01.04,0,.07.02.1.03.02.01.04.03.05.04.01.02.01.04.01.06v6.43Z"/>
      <path class="cls-8" d="m455.62,48.66c0,.06,0,.11-.03.15-.02.04-.04.07-.07.1-.03.03-.06.04-.1.06-.04,0-.07.01-.1.01h-.13c-.07,0-.13,0-.19-.02-.06-.02-.11-.05-.16-.09-.05-.04-.11-.1-.16-.17-.05-.07-.11-.16-.18-.28l-2.33-4.15c-.12-.2-.23-.41-.35-.62-.12-.21-.23-.42-.34-.62h0c0,.25,0,.51,0,.77v5.07s0,.04-.01.06c0,.02-.03.03-.05.04-.02.01-.06.02-.1.02-.04,0-.09.01-.15.01-.06,0-.11,0-.15-.01-.04,0-.07-.01-.1-.02-.02-.01-.04-.02-.05-.04,0-.02-.02-.04-.02-.06v-6.21c0-.12.03-.21.1-.25.06-.05.13-.07.19-.07h.26c.08,0,.15,0,.2.02.05.01.1.04.15.07.04.03.09.08.13.14.04.06.09.14.14.23l1.78,3.17c.11.2.22.39.32.57.1.18.2.36.29.54.1.18.19.35.28.52.09.17.19.34.28.52h0c0-.29,0-.59,0-.9v-4.76s0-.04.01-.06c0-.02.03-.03.05-.04.02-.01.06-.02.09-.03.04,0,.09,0,.15,0,.05,0,.1,0,.14,0,.04,0,.07.01.1.03.02.01.04.03.05.04.01.02.02.04.02.06v6.21Z"/>
      <path class="cls-8" d="m465.54,48.69s0,.08-.01.12c0,.03-.02.06-.03.09-.02.02-.03.04-.05.05-.02.01-.04.02-.07.02h-3.09c-.06,0-.12-.02-.19-.07-.07-.04-.1-.13-.1-.25v-5.99c0-.12.03-.21.1-.25.06-.05.13-.07.19-.07h3.05s.04,0,.07.02c.02.01.04.03.05.05.01.02.02.05.03.09,0,.04,0,.08,0,.13,0,.04,0,.08,0,.12,0,.03-.02.06-.03.08-.01.02-.03.04-.05.05-.02.01-.04.02-.07.02h-2.71v2.33h2.34s.05,0,.07.02c.02,0,.04.03.05.05.01.02.02.05.03.09,0,.04,0,.08,0,.12s0,.08,0,.12c0,.03-.02.06-.03.08-.01.02-.03.04-.05.05-.02.01-.04.02-.07.02h-2.34v2.65h2.76s.05,0,.07.02c.02.01.04.03.05.05.02.02.03.05.03.09,0,.04.01.08.01.13"/>
      <path class="cls-8" d="m473.01,45.55h0c0,.56-.07,1.05-.21,1.47-.14.43-.35.78-.62,1.07-.27.29-.61.5-1.01.65-.4.15-.88.22-1.43.22h-1.3c-.06,0-.12-.02-.19-.07-.06-.05-.1-.13-.1-.25v-5.99c0-.12.03-.21.1-.26.06-.05.13-.07.19-.07h1.39c.56,0,1.04.08,1.42.23.39.15.71.37.97.65.26.28.46.62.59,1.02.13.4.2.84.2,1.32m-.67.03c0-.39-.05-.75-.15-1.08-.1-.33-.25-.61-.45-.85-.2-.24-.46-.43-.77-.56-.31-.13-.7-.2-1.18-.2h-1.02v5.52h1.02c.45,0,.83-.06,1.14-.17.31-.11.57-.28.78-.52.21-.23.36-.53.47-.88.1-.35.16-.78.16-1.26Z"/>
      <path class="cls-8" d="m480.28,46.52c0,.4-.06.76-.17,1.08-.11.32-.28.58-.49.8-.21.22-.47.38-.77.49-.3.11-.63.17-1.01.17-.34,0-.65-.05-.93-.16-.28-.11-.53-.26-.73-.47-.21-.21-.37-.46-.48-.77-.11-.31-.17-.66-.17-1.06v-4.17s0-.04.02-.06c.01-.02.03-.03.05-.04.03-.01.06-.02.09-.03.04,0,.09,0,.15,0s.11,0,.15,0c.04,0,.07.02.1.03.02,0,.04.02.05.04,0,.02.02.04.02.06v4.06c0,.33.04.62.12.87.08.25.2.46.35.62.15.17.34.29.55.38.22.08.46.13.73.13s.52-.04.74-.12c.22-.08.4-.2.55-.37.15-.16.26-.37.34-.61.08-.24.12-.53.12-.86v-4.1s0-.04.02-.06c.01-.02.03-.03.05-.04.02-.01.06-.02.1-.03.04,0,.09,0,.15,0s.11,0,.15,0c.04,0,.07.02.1.03.02,0,.04.02.05.04,0,.02.02.04.02.06v4.09Z"/>
      <path class="cls-8" d="m487.57,48.06s0,.07,0,.1c0,.03,0,.06-.01.08,0,.02-.02.05-.03.07-.01.02-.03.05-.07.08-.03.03-.1.09-.21.16-.11.07-.25.15-.41.22-.16.07-.36.13-.57.18-.21.05-.45.08-.71.08-.41,0-.79-.07-1.13-.22-.34-.14-.62-.36-.86-.64-.24-.28-.42-.63-.55-1.04-.13-.41-.19-.88-.19-1.41s.07-1.02.2-1.45c.14-.43.33-.79.57-1.09.25-.3.54-.53.89-.69.35-.16.73-.24,1.15-.24.2,0,.39.02.57.06.19.04.36.09.51.14.16.06.3.13.42.2.12.08.21.14.26.18.05.05.07.08.09.1.01.02.02.04.03.07,0,.03.01.06.02.09,0,.03,0,.07,0,.11,0,.05,0,.09,0,.12,0,.04-.01.07-.02.09-.01.03-.03.05-.04.06-.02.01-.04.02-.06.02-.05,0-.12-.04-.2-.11-.09-.07-.2-.15-.34-.23-.14-.09-.31-.16-.52-.23-.2-.07-.45-.11-.73-.11-.31,0-.59.06-.85.19-.26.12-.48.31-.67.55-.19.24-.33.54-.43.9-.1.36-.16.77-.16,1.23s.05.83.14,1.17c.09.34.23.63.41.86.18.23.4.41.67.54.27.12.57.19.9.19.28,0,.52-.04.72-.11.21-.07.38-.15.53-.23.15-.09.27-.16.36-.23.09-.07.17-.11.22-.11.02,0,.04,0,.05.01.01,0,.02.03.03.05,0,.02.01.05.02.09,0,.04,0,.08,0,.14"/>
      <path class="cls-8" d="m494.57,48.75h0c.02.05.03.09.03.13,0,.03-.01.06-.04.07-.02.02-.06.03-.1.03-.05,0-.11,0-.18,0s-.13,0-.17,0c-.04,0-.08-.01-.1-.02-.03-.01-.04-.02-.05-.04-.01-.02-.02-.04-.03-.06l-.63-1.77h-2.9l-.61,1.76s-.02.04-.03.06c-.01.02-.03.03-.06.04-.02.01-.06.02-.1.03-.04,0-.1.01-.16.01-.07,0-.13,0-.18-.01-.05,0-.08-.02-.1-.04-.02-.02-.04-.04-.04-.07,0-.03,0-.07.03-.12l2.31-6.32s.03-.05.05-.07c.02-.02.05-.03.08-.04.03-.01.07-.02.12-.02.05,0,.1,0,.16,0,.06,0,.12,0,.16,0,.05,0,.09.01.12.02.03.01.06.03.08.04.02.02.03.04.04.07l2.31,6.32Zm-2.74-5.76h0l-1.25,3.57h2.53l-1.28-3.57Z"/>
      <path class="cls-8" d="m500.01,42.61h0s0,.08-.01.12c0,.03-.02.06-.03.08-.01.02-.03.04-.05.05-.02.01-.04.02-.07.02h-1.97v5.98s0,.04-.02.06c-.01.02-.03.03-.05.04-.02,0-.06.02-.1.02-.04,0-.09.01-.15.01s-.11,0-.15-.01c-.04,0-.07-.02-.1-.02-.02-.01-.04-.03-.05-.04-.01-.02-.02-.04-.02-.06v-5.98h-1.97s-.05,0-.07-.02c-.02-.01-.03-.03-.05-.05-.01-.02-.02-.05-.03-.08,0-.03,0-.07,0-.12,0-.05,0-.09,0-.13,0-.04.02-.07.03-.09.01-.03.03-.04.05-.05.02-.01.04-.02.07-.02h4.56s.05,0,.07.02c.02.01.04.03.05.05.01.02.02.05.03.09,0,.04.01.08.01.13m-2.77,7.03c.02-.07.06-.12.11-.14.05-.02.14-.03.27-.03s.21.02.23.06c.02.04.02.09,0,.15l-.48,1.01c-.03.06-.07.11-.12.12-.05.02-.12.03-.22.03-.09,0-.15-.01-.16-.04-.01-.03,0-.08.01-.15l.36-1.01Z"/>
      <path class="cls-8" d="m502.73,48.86s0,.04-.02.06c-.01.02-.03.03-.05.04-.02.01-.06.02-.1.03-.04,0-.09.01-.15.01-.06,0-.11,0-.15-.01-.04,0-.07-.01-.1-.03-.02,0-.04-.02-.05-.04,0-.02-.02-.04-.02-.06v-6.43s0-.04.02-.06c.01-.02.03-.03.06-.04.03,0,.06-.02.1-.03.04,0,.09-.01.14-.01.06,0,.11,0,.15.01.04,0,.07.02.1.03.02.01.04.03.05.04,0,.02.02.04.02.06v6.43Z"/>
      <path class="cls-8" d="m509.24,48.69s0,.08,0,.12c0,.03-.02.06-.03.09-.02.02-.03.04-.05.05-.02.01-.04.02-.07.02h-3.09c-.06,0-.12-.02-.19-.07-.07-.04-.1-.13-.1-.25v-5.99c0-.12.03-.21.1-.25.06-.05.13-.07.19-.07h3.05s.04,0,.07.02c.02.01.04.03.05.05.01.02.02.05.03.09,0,.04,0,.08,0,.13,0,.04,0,.08,0,.12,0,.03-.02.06-.03.08-.01.02-.03.04-.05.05-.02.01-.04.02-.07.02h-2.71v2.33h2.34s.05,0,.07.02c.02,0,.04.03.05.05.01.02.02.05.03.09,0,.04,0,.08,0,.12s0,.08,0,.12c0,.03-.02.06-.03.08-.01.02-.03.04-.05.05-.02.01-.04.02-.07.02h-2.34v2.65h2.76s.05,0,.07.02c.02.01.04.03.05.05.02.02.03.05.03.09,0,.04,0,.08,0,.13"/>
      <path class="cls-8" d="m474.13,38.86h-39.6c-.12,0-.22-.1-.22-.22s.1-.22.22-.22h39.6c.12,0,.22.1.22.22s-.1.22-.22.22"/>
      <path class="cls-8" d="m509.03,38.86h-27.92c-.12,0-.22-.1-.22-.22s.1-.22.22-.22h27.92c.12,0,.22.1.22.22s-.1.22-.22.22"/>
      <path class="cls-8" d="m436.01,2.45h0c.71,0,1.22.51,1.22,1.26s-.51,1.26-1.22,1.26-1.22-.51-1.22-1.26.51-1.26,1.22-1.26m0-.74c-1.18,0-2.02.84-2.02,1.99s.83,1.99,2.02,1.99,2.02-.84,2.02-1.99-.84-1.99-2.02-1.99Z"/>
      <path class="cls-8" d="m443.82,2.49h0c.41,0,.63.15.63.47s-.22.48-.63.48h-.84v-.95h.84Zm-1.61-.71v3.84h.77v-1.53h.22l1.12,1.53h.93l-1.18-1.54c.74-.07,1.18-.5,1.18-1.14,0-.74-.49-1.17-1.41-1.17h-1.62Z"/>
      <path class="cls-8" d="m451.26,1.72c-1.18,0-2.03.83-2.03,1.99,0,1.24.94,1.99,2.01,1.99s1.88-.82,1.88-1.98c0-.07,0-.14-.01-.22h-1.77v.64h.98c-.1.54-.47.85-1.09.85-.66,0-1.2-.49-1.2-1.27s.51-1.26,1.21-1.26c.39,0,.71.15.93.4l.55-.54c-.34-.37-.85-.59-1.46-.59"/>
      <path class="cls-8" d="m458.69,2.54h0l.55,1.49h-1.11l.56-1.49Zm.47-.76h-.93l-1.49,3.85h.8l.34-.89h1.64l.33.89h.82l-1.5-3.85Z"/>
      <polygon class="cls-8" points="468.08 1.78 467.31 1.78 467.31 4.35 465.36 1.78 464.64 1.78 464.64 5.63 465.41 5.63 465.41 3.06 467.36 5.63 468.08 5.63 468.08 1.78"/>
      <rect class="cls-1" x="472.44" y="1.78" width=".77" height="3.85"/>
      <polygon class="cls-8" points="480.4 1.78 477.39 1.78 477.39 2.49 479.38 2.49 477.39 5.03 477.39 5.63 480.4 5.63 480.4 4.92 478.4 4.92 480.4 2.38 480.4 1.78"/>
      <path class="cls-8" d="m486.16,2.54h0l.55,1.49h-1.11l.56-1.49Zm.47-.76h-.93l-1.49,3.85h.8l.34-.89h1.64l.33.89h.82l-1.5-3.85Z"/>
      <polygon class="cls-8" points="494.57 1.78 491.42 1.78 491.42 2.5 492.61 2.5 492.61 5.63 493.38 5.63 493.38 2.5 494.57 2.5 494.57 1.78"/>
      <path class="cls-8" d="m500.3,2.45h0c.71,0,1.22.51,1.22,1.26s-.51,1.26-1.22,1.26-1.22-.51-1.22-1.26.51-1.26,1.22-1.26m0-.74c-1.18,0-2.02.84-2.02,1.99s.83,1.99,2.02,1.99,2.02-.84,2.02-1.99-.84-1.99-2.02-1.99Z"/>
      <path class="cls-8" d="m508.1,2.49h0c.41,0,.63.15.63.47s-.22.48-.63.48h-.84v-.95h.84Zm-1.61-.71v3.84h.77v-1.53h.22l1.12,1.53h.93l-1.18-1.54c.74-.07,1.18-.5,1.18-1.14,0-.74-.49-1.17-1.41-1.17h-1.62Z"/>
      <path class="cls-1" d="m547.97,2.49c.42,0,.63.17.63.52s-.22.52-.63.52h-.79v-1.03h.79Zm.02,1.73c.91,0,1.39-.48,1.39-1.21s-.49-1.22-1.4-1.22h-1.56v3.83h.76v-1.4h.8Z"/>
      <path class="cls-1" d="m553.2,2.54l.55,1.48h-1.11l.55-1.48Zm.47-.76h-.93l-1.49,3.83h.8l.33-.89h1.63l.33.89h.82l-1.49-3.83Z"/>
      <path class="cls-1" d="m559.19,2.49c.4,0,.63.15.63.46s-.22.48-.63.48h-.84v-.94h.84Zm-1.61-.7v3.83h.76v-1.52h.22l1.11,1.52h.92l-1.18-1.53c.74-.07,1.17-.5,1.17-1.13,0-.73-.49-1.17-1.4-1.17h-1.62Z"/>
      <polygon class="cls-1" points="566.01 1.79 562.88 1.79 562.88 2.5 564.06 2.5 564.06 5.62 564.83 5.62 564.83 2.5 566.01 2.5 566.01 1.79"/>
      <polygon class="cls-1" points="571.32 4.92 569.23 4.92 569.23 4.04 571.21 4.04 571.21 3.34 569.23 3.34 569.23 2.49 571.3 2.49 571.3 1.79 568.46 1.79 568.46 5.62 571.32 5.62 571.32 4.92"/>
      <polygon class="cls-1" points="577.46 1.79 576.7 1.79 576.7 4.35 574.75 1.79 574.03 1.79 574.03 5.62 574.8 5.62 574.8 3.06 576.75 5.62 577.46 5.62 577.46 1.79"/>
      <polygon class="cls-1" points="583.12 4.92 581.02 4.92 581.02 4.04 583 4.04 583 3.34 581.02 3.34 581.02 2.49 583.1 2.49 583.1 1.79 580.26 1.79 580.26 5.62 583.12 5.62 583.12 4.92"/>
      <path class="cls-1" d="m587.43,2.49c.4,0,.63.15.63.46s-.22.48-.63.48h-.84v-.94h.84Zm-1.61-.7v3.83h.76v-1.52h.22l1.11,1.52h.92l-1.18-1.53c.74-.07,1.17-.5,1.17-1.13,0-.73-.49-1.17-1.4-1.17h-1.62Z"/>
      <polygon class="cls-1" points="599.57 3.37 597.65 3.37 597.65 2.49 599.7 2.49 599.7 1.79 596.89 1.79 596.89 5.62 597.65 5.62 597.65 4.07 599.57 4.07 599.57 3.37"/>
      <path class="cls-1" d="m604.13,2.45c.71,0,1.21.51,1.21,1.25s-.51,1.25-1.21,1.25-1.21-.51-1.21-1.25.51-1.25,1.21-1.25m0-.73c-1.18,0-2.01.84-2.01,1.99s.83,1.99,2.01,1.99,2.01-.84,2.01-1.99-.83-1.99-2.01-1.99Z"/>
      <polygon class="cls-1" points="612.18 1.79 611.42 1.79 611.42 4.35 609.47 1.79 608.75 1.79 608.75 5.62 609.52 5.62 609.52 3.06 611.46 5.62 612.18 5.62 612.18 1.79"/>
      <path class="cls-1" d="m616.55,2.5c.81,0,1.2.5,1.2,1.2s-.39,1.2-1.2,1.2h-.81v-2.4h.81Zm-1.57-.71v3.83h1.58c1.2,0,1.99-.76,1.99-1.92s-.79-1.92-1.99-1.92h-1.58Z"/>
      <path class="cls-1" d="m622.55,2.54l.55,1.48h-1.11l.55-1.48Zm.47-.76h-.93l-1.49,3.83h.8l.33-.89h1.63l.33.89h.82l-1.49-3.83Z"/>
      <polygon class="cls-1" points="629.39 1.79 626.25 1.79 626.25 2.5 627.44 2.5 627.44 5.62 628.2 5.62 628.2 2.5 629.39 2.5 629.39 1.79"/>
      <path class="cls-1" d="m633.56,2.45c.71,0,1.21.51,1.21,1.25s-.51,1.25-1.21,1.25-1.21-.51-1.21-1.25.51-1.25,1.21-1.25m0-.73c-1.18,0-2.01.84-2.01,1.99s.83,1.99,2.01,1.99,2.01-.84,2.01-1.99-.83-1.99-2.01-1.99Z"/>
      <path class="cls-1" d="m639.78,2.49c.4,0,.63.15.63.46s-.22.48-.63.48h-.84v-.94h.84Zm-1.61-.7v3.83h.76v-1.52h.22l1.11,1.52h.93l-1.18-1.53c.74-.07,1.17-.5,1.17-1.13,0-.73-.49-1.17-1.4-1.17h-1.62Z"/>
      <path class="cls-1" d="m589.82,25.35c1.24.64,1.96,1.83,1.96,3.18,0,2.33-1.69,4.14-4.93,4.14h-9.35v-14.12h9.3c2.6,0,4.48,1.58,4.48,3.97,0,1.22-.53,2.11-1.45,2.82m-2.88-.98c1.19,0,1.73-.83,1.73-1.71,0-.98-.62-1.77-1.88-1.77h-6.7v3.48h6.85Zm2.13,4.16c0-1.19-.62-1.83-1.96-1.83h-7.02v3.63h6.7c1.56,0,2.28-.68,2.28-1.81Z"/>
      <path class="cls-1" d="m601.88,27.48h-4.22v5.19h-2.62v-14.12h9.07c3.01,0,4.88,1.84,4.88,4.5s-1.83,4.03-4.05,4.35l4.2,5.27h-3.28l-3.99-5.19Zm1.96-2.35c1.64,0,2.56-.85,2.56-2.07,0-1.34-.81-2.17-2.28-2.17h-6.45v4.24h6.17Z"/>
      <path class="cls-1" d="m619.16,18.56c4.44,0,7.34,2.81,7.34,7.04,0,3.91-3.09,7.08-6.95,7.08h-7.79v-14.12h7.4Zm0,11.75c3.07,0,4.63-2.01,4.63-4.71s-1.56-4.67-4.63-4.67h-4.78v9.37h4.78Z"/>
      <rect class="cls-1" x="546.29" y="13.54" width="24.36" height="24.36"/>
      <rect class="cls-2" x="546.87" y="14.12" width="23.2" height="11.83"/>
      <rect class="cls-5" x="546.87" y="25.72" width="23.2" height="11.6"/>
      <rect class="cls-1" x="550.92" y="25.01" width="15.09" height="1.41"/>
      <path class="cls-1" d="m551.15,47.28v.12c0,.65-.19,1.18-.57,1.59-.38.41-.89.61-1.53.61-.57,0-1.05-.18-1.44-.53-.45-.41-.68-.95-.68-1.61s.23-1.18.68-1.6c.39-.36.89-.54,1.48-.54.71,0,1.3.31,1.77.93l-.59.37c-.33-.39-.73-.59-1.22-.59-.43,0-.78.13-1.05.4-.28.27-.42.61-.42,1.02s.14.77.4,1.03c.27.27.62.4,1.07.4.66,0,1.1-.3,1.31-.9h-1.45v-.72h2.24Z"/>
      <path class="cls-1" d="m555.85,49.48h-.72l-.84-1.48h-1.6v1.48h-.63v-4.03h2.6c.34,0,.61.12.82.35.2.23.3.54.3.93,0,.67-.27,1.07-.8,1.22l.87,1.53Zm-1.29-2.19c.38,0,.57-.18.57-.54,0-.39-.2-.58-.61-.58h-1.84v1.12h1.88Z"/>
      <path class="cls-1" d="m560.78,47.46c0,.66-.22,1.19-.67,1.61-.38.35-.87.53-1.44.53s-1.06-.18-1.45-.53c-.45-.41-.68-.95-.68-1.61s.23-1.19.68-1.6c.4-.36.88-.54,1.44-.54s1.04.18,1.44.54c.45.41.68.95.68,1.6m-.65,0c0-.41-.14-.76-.41-1.02-.27-.27-.62-.4-1.06-.4s-.79.13-1.06.4c-.27.27-.41.61-.41,1.02s.13.77.4,1.04c.27.26.63.4,1.07.4s.79-.13,1.06-.4c.27-.26.4-.61.4-1.04Z"/>
      <path class="cls-1" d="m565.39,48.16c0,.42-.17.77-.51,1.04-.34.27-.79.4-1.36.4s-1.03-.13-1.37-.4c-.34-.27-.51-.61-.51-1.04v-2.7h.63v2.55c0,.6.42.89,1.25.89s1.24-.3,1.24-.89v-2.55h.62v2.7Z"/>
      <path class="cls-1" d="m569.06,45.46c.34,0,.61.12.82.35.2.23.3.54.3.93,0,.41-.11.72-.32.94-.21.22-.51.33-.91.33h-1.87v1.48h-.63v-4.03h2.6Zm-.1,1.83c.38,0,.57-.18.57-.54,0-.39-.2-.58-.6-.58h-1.84v1.12h1.88Z"/>
      <polygon class="cls-1" points="574.3 49.48 570.84 49.48 570.84 45.46 574.18 45.46 574.18 46.17 571.46 46.17 571.46 47.03 573.36 47.03 573.36 47.75 571.46 47.75 571.46 48.77 574.3 48.77 574.3 49.48"/>
      <path class="cls-1" d="m579.61,46.45c-.42-.27-.88-.41-1.37-.41-.72,0-1.08.16-1.08.48,0,.19.13.31.4.37.37.04.74.08,1.1.12.53.07.91.18,1.13.35.25.19.37.47.37.85,0,.43-.15.77-.46,1-.31.23-.76.35-1.34.35-.83,0-1.49-.24-1.98-.71l.34-.55c.44.38.99.58,1.63.58.36,0,.64-.06.84-.17.2-.11.3-.27.3-.46,0-.21-.12-.36-.37-.45-.13-.05-.35-.08-.63-.1-.45-.03-.72-.05-.82-.06-.4-.05-.69-.16-.88-.32-.19-.16-.28-.41-.28-.72,0-.38.15-.69.45-.91.3-.22.73-.34,1.27-.34.73,0,1.32.2,1.77.59l-.39.51Z"/>
      <path class="cls-1" d="m584.99,47.46c0,.66-.22,1.19-.68,1.61-.38.35-.86.53-1.44.53s-1.06-.18-1.45-.53c-.45-.41-.68-.95-.68-1.61s.23-1.19.68-1.6c.4-.36.88-.54,1.44-.54s1.04.18,1.43.54c.45.41.68.95.68,1.6m-.65,0c0-.41-.14-.76-.41-1.02-.27-.27-.63-.4-1.06-.4s-.79.13-1.06.4c-.27.27-.41.61-.41,1.02s.13.77.4,1.04c.27.26.63.4,1.07.4s.8-.13,1.06-.4c.27-.26.4-.61.4-1.04Z"/>
      <path class="cls-1" d="m589.75,46.43l-.58.25c-.34-.43-.79-.64-1.31-.64-.46,0-.82.13-1.1.4-.27.26-.41.61-.41,1.02s.14.78.41,1.04c.27.26.64.39,1.1.39.54,0,.98-.22,1.32-.66l.54.36c-.48.67-1.1,1-1.87,1-.64,0-1.16-.2-1.56-.6-.4-.4-.6-.91-.6-1.53s.23-1.18.68-1.59c.39-.36.87-.54,1.44-.54.8,0,1.44.37,1.93,1.1"/>
      <rect class="cls-1" x="590.63" y="45.46" width=".63" height="4.03"/>
      <polygon class="cls-1" points="595.83 49.48 592.36 49.48 592.36 45.46 595.71 45.46 595.71 46.17 592.99 46.17 592.99 47.03 594.88 47.03 594.88 47.75 592.99 47.75 592.99 48.77 595.83 48.77 595.83 49.48"/>
      <polygon class="cls-1" points="599.93 46.17 598.39 46.17 598.39 49.48 597.76 49.48 597.76 46.17 596.22 46.17 596.22 45.46 599.93 45.46 599.93 46.17"/>
      <polygon class="cls-1" points="604.08 49.48 600.61 49.48 600.61 45.46 603.96 45.46 603.96 46.17 601.24 46.17 601.24 47.03 603.13 47.03 603.13 47.75 601.24 47.75 601.24 48.77 604.08 48.77 604.08 49.48"/>
      <path class="cls-1" d="m610.48,47.28v.12c0,.65-.19,1.18-.57,1.59-.38.41-.89.61-1.53.61-.57,0-1.05-.18-1.44-.53-.45-.41-.68-.95-.68-1.61s.22-1.18.68-1.6c.39-.36.89-.54,1.48-.54.71,0,1.3.31,1.77.93l-.59.37c-.33-.39-.73-.59-1.22-.59-.43,0-.78.13-1.06.4-.28.27-.41.61-.41,1.02s.13.77.4,1.03c.27.27.62.4,1.07.4.66,0,1.1-.3,1.32-.9h-1.45v-.72h2.24Z"/>
      <polygon class="cls-1" points="614.86 49.48 611.39 49.48 611.39 45.46 614.73 45.46 614.73 46.17 612.02 46.17 612.02 47.03 613.91 47.03 613.91 47.75 612.02 47.75 612.02 48.77 614.86 48.77 614.86 49.48"/>
      <polygon class="cls-1" points="619.42 49.48 618.49 49.48 616.3 46.12 616.3 49.48 615.67 49.48 615.67 45.46 616.61 45.46 618.79 48.81 618.79 45.46 619.42 45.46 619.42 49.48"/>
      <polygon class="cls-1" points="623.99 49.48 620.52 49.48 620.52 45.46 623.87 45.46 623.87 46.17 621.15 46.17 621.15 47.03 623.04 47.03 623.04 47.75 621.15 47.75 621.15 48.77 623.99 48.77 623.99 49.48"/>
      <path class="cls-1" d="m628.59,49.48h-.72l-.84-1.48h-1.6v1.48h-.63v-4.03h2.6c.34,0,.61.12.82.35.2.23.3.54.3.93,0,.67-.27,1.07-.8,1.22l.87,1.53Zm-1.29-2.19c.38,0,.57-.18.57-.54,0-.39-.2-.58-.61-.58h-1.84v1.12h1.88Z"/>
      <path class="cls-1" d="m633.29,49.48h-.69l-.37-.86h-2.17l-.37.86h-.69l1.75-4.03h.78l1.75,4.03Zm-1.38-1.58l-.76-1.78-.77,1.78h1.53Z"/>
      <polygon class="cls-1" points="637.02 49.48 633.91 49.48 633.91 45.46 634.54 45.46 634.54 48.77 637.02 48.77 637.02 49.48"/>
      <polygon class="cls-1" points="641.17 49.48 637.71 49.48 637.71 45.46 641.05 45.46 641.05 46.17 638.33 46.17 638.33 47.03 640.22 47.03 640.22 47.75 638.33 47.75 638.33 48.77 641.17 48.77 641.17 49.48"/>
      <path class="cls-8" d="m108.95,46.72h0c.65,0,1.21-.17,1.21-.93,0-.51-.28-.89-.93-.89h-1.72v1.82h1.45Zm-2.14-2.4h2.46c.98,0,1.59.53,1.59,1.37,0,.63-.28,1.15-.91,1.32h0c.61.13.73.58.78,1.09.04.51.02,1.08.31,1.44h-.77c-.2-.21-.09-.77-.19-1.29-.07-.51-.2-.94-.87-.94h-1.7v2.23h-.69v-5.22Z"/>
      <path class="cls-8" d="m115.02,49.07h0c1.27,0,1.81-1.1,1.81-2.15s-.53-2.15-1.81-2.15-1.81,1.1-1.81,2.15.53,2.15,1.81,2.15m0-4.88c1.66,0,2.5,1.32,2.5,2.73s-.84,2.73-2.5,2.73-2.5-1.32-2.5-2.73.84-2.73,2.5-2.73Z"/>
      <polygon class="cls-8" points="119.37 44.31 120.32 44.31 121.97 48.7 123.62 44.31 124.57 44.31 124.57 49.53 123.91 49.53 123.91 45.19 123.9 45.19 122.27 49.53 121.67 49.53 120.04 45.19 120.03 45.19 120.03 49.53 119.37 49.53 119.37 44.31"/>
      <path class="cls-8" d="m127.62,47.38h1.77l-.87-2.43h-.01l-.88,2.43Zm.52-3.06h.77l2.04,5.22h-.77l-.57-1.57h-2.21l-.58,1.57h-.72l2.04-5.22Z"/>
      <polygon class="cls-8" points="132.44 44.31 133.18 44.31 135.93 48.54 135.94 48.54 135.94 44.31 136.6 44.31 136.6 49.53 135.84 49.53 133.11 45.34 133.1 45.34 133.1 49.53 132.44 49.53 132.44 44.31"/>
      <rect class="cls-1" x="138.75" y="44.31" width=".69" height="5.22"/>
      <path class="cls-8" d="m142.54,47.38h1.77l-.87-2.43h-.01l-.88,2.43Zm.52-3.06h.77l2.04,5.22h-.77l-.57-1.57h-2.21l-.58,1.57h-.72l2.04-5.22Z"/>
      <polygon class="cls-8" points="67.42 18.65 64.17 18.65 64.17 27.1 61.33 27.1 61.33 18.65 58.08 18.65 58.08 16.21 67.42 16.21 67.42 18.65"/>
      <polygon class="cls-8" points="67.75 16.21 76.44 16.21 76.44 18.48 70.59 18.48 70.59 20.39 75.93 20.39 75.93 22.58 70.59 22.58 70.59 24.66 76.59 24.66 76.59 27.1 67.75 27.1 67.75 16.21"/>
      <path class="cls-8" d="m84.52,20.1c-.15-1.1-1.01-1.68-2.2-1.68-1.83,0-2.53,1.62-2.53,3.24s.7,3.24,2.53,3.24c1.33,0,2.09-.76,2.2-2.01h2.84c-.15,2.81-2.21,4.46-4.97,4.46-3.3,0-5.43-2.52-5.43-5.68s2.14-5.68,5.43-5.68c2.35,0,4.9,1.5,4.97,4.12h-2.84Z"/>
      <polygon class="cls-8" points="87.92 16.21 90.76 16.21 90.76 20.17 94.5 20.17 94.5 16.21 97.34 16.21 97.34 27.1 94.5 27.1 94.5 22.62 90.76 22.62 90.76 27.1 87.92 27.1 87.92 16.21"/>
      <path class="cls-8" d="m65.65,33.72c-.15-1.1-1.01-1.68-2.2-1.68-1.83,0-2.53,1.62-2.53,3.24s.7,3.24,2.53,3.24c1.33,0,2.09-.76,2.2-2.01h2.84c-.15,2.81-2.21,4.46-4.97,4.46-3.29,0-5.43-2.52-5.43-5.68s2.14-5.68,5.43-5.68c2.35,0,4.9,1.49,4.97,4.12h-2.84Z"/>
      <polygon class="cls-8" points="69.05 29.83 71.89 29.83 71.89 33.8 75.63 33.8 75.63 29.83 78.47 29.83 78.47 40.73 75.63 40.73 75.63 36.24 71.89 36.24 71.89 40.73 69.05 40.73 69.05 29.83"/>
      <path class="cls-8" d="m82.62,36.67h2.47l-1.21-3.82h-.03l-1.24,3.82Zm-.18-6.84h2.88l4.07,10.9h-2.96l-.67-1.95h-3.8l-.69,1.95h-2.92l4.07-10.9Z"/>
      <polygon class="cls-8" points="89.3 29.83 92.14 29.83 92.14 38.28 97.22 38.28 97.22 40.73 89.3 40.73 89.3 29.83"/>
      <polygon class="cls-8" points="97.71 29.83 100.54 29.83 100.54 38.28 105.63 38.28 105.63 40.73 97.71 40.73 97.71 29.83"/>
      <polygon class="cls-8" points="106.11 29.83 114.8 29.83 114.8 32.1 108.95 32.1 108.95 34.01 114.29 34.01 114.29 36.21 108.95 36.21 108.95 38.28 114.95 38.28 114.95 40.73 106.11 40.73 106.11 29.83"/>
      <polygon class="cls-8" points="115.62 29.83 118.53 29.83 122.32 36.55 122.35 36.55 122.35 29.83 125.02 29.83 125.02 40.73 122.1 40.73 118.32 33.94 118.29 33.94 118.29 40.73 115.62 40.73 115.62 29.83"/>
      <path class="cls-8" d="m136.1,40.73h-1.83l-.17-1.19c-.75,1.05-2.03,1.42-3.04,1.42-3.29,0-5.43-2.52-5.43-5.68s2.14-5.68,5.43-5.68c2.26,0,4.67,1.21,4.93,3.94h-2.84c-.09-.93-1.01-1.5-2.15-1.5-1.83,0-2.53,1.62-2.53,3.24s.7,3.24,2.53,3.24c1.4,0,2.35-.66,2.5-1.65h-1.98v-2.1h4.58v5.96Z"/>
      <polygon class="cls-8" points="137 29.83 145.68 29.83 145.68 32.1 139.84 32.1 139.84 34.01 145.18 34.01 145.18 36.21 139.84 36.21 139.84 38.28 145.83 38.28 145.83 40.73 137 40.73 137 29.83"/>
      <path class="cls-9" d="m24.89,22.19c.91,0,1.8.08,2.64.24l2.01-2.09c-1.4-.49-2.98-.76-4.65-.76-2.83,0-5.41.79-7.31,2.08l1.75,1.66c1.62-.71,3.52-1.12,5.56-1.12"/>
      <path class="cls-8" d="m24.89,19.58c1.67,0,3.24.27,4.65.76l2.18-2.27c-2.04-.8-4.36-1.26-6.83-1.26-3.68,0-7.04,1.01-9.6,2.68l2.29,2.17c1.91-1.29,4.48-2.08,7.31-2.08"/>
      <path class="cls-9" d="m14.4,28.47c.18-.75.52-1.46.99-2.12l-.88-.89c-.17.55-.27,1.12-.27,1.7,0,.45.06.88.16,1.31"/>
      <path class="cls-9" d="m7.9,33.39l-.37,1.91,3.67-1.58c-.23-.49-.28-1.12-.41-1.64l-2.89,1.31Z"/>
      <polygon class="cls-9" points="5.32 12.57 0 41.69 2.52 41.89 7.78 12.35 5.32 12.57"/>
      <path class="cls-6" d="m23.2,29.32v-2.35l-3.86-3.66-1.75-1.66-2.29-2.17-7.53-7.13-5.27,29.54,11.14-4.9c-1.11-.98-1.9-2.03-2.48-3.26l-3.63,1.56.36-1.9,2.35-12.25.2-1.03,1.94,1.95,2.5,2.51,1.07,1.08,4.41,3.8-4.28,1.96c1.11,1.11,2.43,2.09,4.2,2.64l5.34-2.4-2.43-2.33Z"/>
      <path class="cls-9" d="m35.37,28.47c.1-.42.16-.86.16-1.31,0-1.32-.48-2.56-1.31-3.64l-1.27,1.31c1.22,1.01,2.08,2.26,2.42,3.63"/>
      <path class="cls-9" d="m37.75,40.93l-3-2.89c-.48.33-.99.63-1.53.91l4.54,4.35,13.99-14.57-.02-2.36-13.97,14.55Z"/>
      <path class="cls-9" d="m27.56,31.15l-2.47-2.38-1.89-1.81v2.36s2.65,2.56,2.65,2.56l2.54,2.44c.65-.16,1.26-.36,1.85-.61l-2.68-2.57Z"/>
      <polygon class="cls-9" points="37.29 17.97 35.29 20.05 33.1 22.33 31.6 23.89 28.76 26.85 29.95 27.99 32.97 24.85 34.23 23.53 36.55 21.12 37.29 20.35 44.98 27.73 46.17 26.49 37.29 17.97"/>
      <path class="cls-8" d="m36.55,21.12l-2.31,2.41c.83,1.08,1.3,2.32,1.3,3.63,0,.45-.06.88-.16,1.31-.27,1.11-.88,2.13-1.74,3.02-.89.91-2.04,1.67-3.39,2.23-.58.24-1.2.44-1.85.61-1.1.27-2.28.42-3.51.42-1.51,0-2.95-.23-4.25-.63-1.78-.55-3.3-1.44-4.41-2.55-.41-.4-.76-.84-1.05-1.3-.36-.57-.62-1.17-.77-1.8-.1-.42-.16-.86-.16-1.31,0-.59.1-1.16.27-1.7l-2.66-2.69c-.97,1.44-1.52,3.07-1.52,4.79,0,.44.04.88.11,1.31.17,1.04.54,2.03,1.09,2.96.27.47.59.91.94,1.34.93,1.13,2.14,2.12,3.55,2.92,2.45,1.4,5.52,2.23,8.86,2.23,2.33,0,4.54-.41,6.49-1.13.59-.22,1.16-.47,1.71-.74,1.26-.64,2.38-1.42,3.31-2.31,1.57-1.49,2.61-3.3,2.93-5.27.07-.43.11-.86.11-1.31,0-2.41-1.07-4.64-2.89-6.44"/>
      <path class="cls-3" d="m27.55,31.17l2.67,2.56c1.34-.56,2.51-1.32,3.4-2.22l-3.66-3.51-1.19-1.14,2.82-2.94,1.5-1.56,2.2-2.29,1.99-2.07,8.86,8.51-1.19,1.24-7.26,7.56c-.76,1.05-1.76,1.98-2.93,2.78l2.98,2.88,13.99-14.57-14.57-13.99-5.46,5.68-2.18,2.27-2.01,2.09-4.32,4.52,4.35,4.2Z"/>
      <path class="cls-9" d="m15.24,30.34s.07.11.08.13c.21.34.51.65.79.96l4.35-2.01-10-9.31-.27,1.44,7.85,7.77-2.79,1.03Z"/>
      <path class="cls-9" d="m39.44,27.56c0,.44-.04.88-.11,1.31-.32,1.97-1.37,3.78-2.93,5.27-.93.89-2.05,1.67-3.31,2.31-.54.27-1.11.52-1.71.74-1.95.72-4.16,1.13-6.49,1.13-3.33,0-6.41-.83-8.86-2.23-1.41-.8-2.62-1.79-3.55-2.92-.36-.43-.67-.88-.94-1.34-.54-.93-.92-1.92-1.09-2.96-.07-.43-.11-.86-.11-1.31,0-.14.01-.28.02-.41,0,0,0-.02,0-.02-.07.43-.01,2.61-.01,3.05,0,.7.09,1.39.27,2.05.13.52.32,1.02.55,1.51.58,1.23,1.46,2.36,2.57,3.34,2.67,2.36,6.68,3.85,11.16,3.85,3.11,0,5.99-.72,8.35-1.95.54-.28,1.05-.58,1.53-.91,1.17-.8,2.17-1.74,2.93-2.79,1.11-1.52,1.74-3.25,1.74-5.1,0-.39.03-2.23,0-2.97,0-.1,0,.23,0,.35"/>
      <polygon class="cls-8" points="60.45 1.81 68.17 1.81 67.44 4.78 63.74 4.78 63.38 6.34 67.23 6.34 66.56 9.09 62.75 9.09 61.84 13 57.85 13 60.45 1.81"/>
      <polygon class="cls-8" points="69.21 1.81 73.2 1.81 70.6 13 66.62 13 69.21 1.81"/>
      <path class="cls-8" d="m77.19,7.14h0c1.28,0,2.18-.76,2.18-1.83,0-.57-.42-.86-1.24-.86-.24,0-.37.02-.62.07l-.6,2.58c.13.02.15.03.29.03m-2.94-5.27l.26-.03c1.28-.15,2.87-.25,3.75-.25,1.46,0,2.6.17,3.46.52,1.1.45,1.75,1.44,1.75,2.64,0,1.02-.35,2-1.01,2.75-.57.65-1.08.97-2.14,1.29l-.26.08c.11.08.15.12.2.17.31.35,1.24,2.17,2.03,3.96h-4.39c-.57-1.59-.73-2.01-1.48-3.83l-.88,3.83h-3.88l2.58-11.13Z"/>
      <polygon class="cls-8" points="92.92 1.81 102.59 1.81 101.91 5.05 99.04 5.05 97.14 13 93.15 13 95.06 5.05 91.95 5.05 92.92 1.81"/>
      <path class="cls-8" d="m98.98,11.94h0c.09,0,.14-.04.14-.12s-.05-.12-.13-.12c-.02,0-.02,0-.04,0v.23s.02,0,.04,0m-.35-.47h0v.99h.31v-.33c.09.16.12.19.19.33h.36c-.09-.15-.21-.32-.24-.35,0,0,0-.01-.02-.02h.01c.13-.05.19-.14.19-.28,0-.24-.16-.36-.48-.36-.04,0-.08,0-.18.01-.1,0-.1.01-.15.01Zm.38,1.35h0c.47,0,.85-.38.85-.85s-.38-.85-.85-.85-.85.38-.85.85.38.85.85.85Zm0-1.82c.54,0,.97.43.97.97s-.43.97-.97.97-.97-.43-.97-.97.43-.97.97-.97Z"/>
      <path class="cls-8" d="m82.68,12.72c1.12.33,2.35.52,3.49.52,1.55,0,2.74-.35,3.77-1.09,1.13-.81,1.86-2.05,1.86-3.17,0-.76-.33-1.44-.91-1.93-.46-.37-.93-.65-1.9-1.11l-.79-.37c-.26-.13-.38-.27-.38-.42,0-.4.51-.71,1.21-.71.52,0,1.14.15,2.32.54l.82-3.03c-.88-.24-1.75-.36-2.61-.36-3.25,0-5.76,1.78-5.76,4.08,0,1.21.8,2.06,2.82,3,.95.44,1.11.55,1.11.86,0,.45-.49.74-1.3.74-.71,0-1.63-.22-2.87-.67h0s-.87,3.12-.87,3.12Z"/>
      <rect class="cls-1" x="161.13" width="1.75" height="49.33"/>
      <path class="cls-1" d="m179.34,2.32h2.15c.24,0,.43.19.43.43v10.63c0,.24-.19.43-.43.43h-2.15c-.24,0-.43-.19-.43-.43V2.75c0-.24.19-.43.43-.43Z"/>
      <path class="cls-1" d="m184.29,16.87c-.24,0-.43-.19-.43-.43V2.75c0-.24.19-.43.43-.43h2.56c.28,0,.45.13.54.39l2.95,8.82c.02.11.19.11.19-.04v-4.68c0-.24.19-.43.43-.43h2.15c.24,0,.43.19.43.43v11.54c0,.24-.19.43-.43.43h-2.54c-.3,0-.49-.13-.58-.37l-2.93-9.59c-.02-.11-.19-.11-.19.04v7.58c0,.24-.19.43-.43.43h-2.15Z"/>
      <path class="cls-1" d="m197.95,17.38c-.24,0-.43-.19-.43-.43V5.55c0-.15-.06-.21-.22-.21h-6.18c-.24,0-.43-.19-.43-.43v-2.15c0-.24.19-.43.43-.43h12.31c.24,0,.43.19.43.43v2.15c0,.24-.19.43-.43.43h-2.69c-.15,0-.22.06-.22.21v11.4c0,.24-.19.43-.43.43h-2.15Z"/>
      <path class="cls-1" d="m208.81,17.62c-1.12,0-2.09-.26-2.88-.77-.8-.52-1.4-1.2-1.79-2.09-.41-.88-.6-2.52-.6-4.91s.19-4.02.6-4.91c.77-1.74,2.43-2.86,4.67-2.86s3.89,1.12,4.67,2.86c.41.88.6,2.52.6,4.91s-.19,4.02-.6,4.91c-.39.88-.99,1.57-1.79,2.09-.8.52-1.76.77-2.88.77m0-3.03c.95,0,1.57-.34,1.89-1.03.19-.45.3-1.68.3-3.7s-.11-3.25-.3-3.7c-.32-.69-.95-1.03-1.89-1.03s-1.57.34-1.89,1.03c-.19.45-.3,1.68-.3,3.7s.11,3.25.3,3.7c.32.69.95,1.03,1.89,1.03Z"/>
      <path class="cls-1" d="m220.86,23.4c-.24,0-.43-.19-.43-.43V5.55c0-.15-.06-.21-.22-.21h-3.12c-.24,0-.43-.19-.43-.43v-2.15c0-.24.19-.43.43-.43h12.22c.24,0,.43.19.43.43v2.15c0,.24-.19.43-.43.43h-5.66c-.15,0-.22.06-.22.21v17.43c0,.24-.19.43-.43.43h-2.15Z"/>
      <path class="cls-1" d="m227.42,17.38c-.24,0-.43-.19-.43-.43V7c0-.24.19-.43.43-.43h2.15c.24,0,.43.19.43.43v2.08c0,.15.06.22.22.22h3.23c.15,0,.22-.06.22-.22V2.75c0-.24.19-.43.43-.43h2.15c.24,0,.43.19.43.43v16.03c0,.24-.19.43-.43.43h-2.15c-.24,0-.43-.19-.43-.43v-6.25c0-.15-.06-.22-.22-.22h-3.23c-.15,0-.22.06-.22.22v4.43c0,.24-.28.43-.54.43h-2.04Z"/>
      <path class="cls-1" d="m239.04,17.38c-.24,0-.43-.19-.43-.43V2.75c0-.24.19-.43.43-.43h7.81c.23,0,.42.19.43.42v2.17c0,.23-.2.42-.43.42h-5.01c-.15,0-.22.06-.22.21v2.58c0,.15.06.22.22.22h3.6c.24,0,.43.19.43.43v2.15c0,.24-.19.43-.43.43h-3.6c-.15,0-.22.06-.22.22v2.58c0,.15.06.22.22.22h1.88c.24,0,.43.19.43.43v2.15c0,.24-.19.43-.43.43h-4.68Z"/>
      <path class="cls-1" d="m193.97,35.45c-.24,0-.43-.19-.43-.43v-14.2c0-.24.19-.43.43-.43h4.22c2.24,0,3.89,1.12,4.67,2.86.41.88.6,2.45.6,4.67s-.19,3.79-.6,4.67c-.77,1.74-2.43,2.86-4.67,2.86h-4.22Zm4.22-3.03c.95,0,1.57-.34,1.89-1.03.19-.45.3-1.59.3-3.46s-.11-3.01-.3-3.46c-.32-.69-.95-1.03-1.89-1.03h-1.42c-.15,0-.22.06-.22.22v8.56c0,.15.06.22.22.22h1.42Z"/>
      <path class="cls-1" d="m205.29,35.45c-.24,0-.43-.19-.43-.43v-14.2c0-.24.19-.43.43-.43h7.81c.24,0,.43.19.43.43v2.15c0,.24-.19.43-.43.43h-5.01c-.15,0-.22.06-.22.21v2.58c0,.15.06.22.22.22h4.84c.24,0,.43.19.43.43v2.15c0,.24-.19.43-.43.43h-4.84c-.15,0-.22.06-.22.22v2.58c0,.15.06.22.22.22h5.1c.24,0,.43.19.43.43v2.15c0,.24-.19.43-.43.43h-7.9Z"/>
      <path class="cls-1" d="m215.33,35.45c-.24,0-.43-.19-.43-.43v-14.2c0-.24.19-.43.43-.43h3.73c.24,0,.43.19.43.43v2.15c0,.24-.19.43-.43.43h-.94c-.15,0-.22.06-.22.21v2.58c0,.15.06.22.22.22h4.84c.24,0,.43.19.43.43v2.15c0,.24-.19.43-.43.43h-4.84c-.15,0-.22.06-.22.22v2.58c0,.15.06.22.22.22h5.1c.24,0,.43.19.43.43v2.15c0,.24-.19.43-.43.43h-7.9Z"/>
      <path class="cls-1" d="m225.38,35.45c-.24,0-.43-.19-.43-.43v-14.2c0-.24.19-.43.43-.43h4.73c1.36,0,2.43.41,3.27,1.25.84.84,1.25,1.91,1.25,3.27s-.41,2.43-1.25,3.27c-.84.84-1.92,1.25-3.27,1.25h-1.94c-.15,0-.22.06-.22.22v5.38c0,.24-.19.43-.43.43h-2.15Zm4.63-9.04c.88,0,1.51-.62,1.51-1.51s-.62-1.51-1.51-1.51h-1.83c-.15,0-.22.06-.22.22v2.58c0,.15.06.22.22.22h1.83Z"/>
      <path class="cls-1" d="m229.17,35.46c-.13-.06-.22-.13-.29-.24-.07-.1-.1-.22-.1-.36v-.04s0-.03.01-.03c0,0,.02-.01.03-.01h.47s.03,0,.03.01c0,0,.01.02.01.03v.02c0,.06.03.11.09.15.06.04.14.06.24.06.07,0,.13-.02.16-.05.03-.03.05-.07.05-.1,0-.04-.02-.08-.06-.1-.04-.02-.11-.05-.22-.08l-.09-.02c-.2-.06-.37-.14-.5-.24-.14-.1-.2-.25-.2-.44,0-.13.03-.24.1-.34.07-.1.16-.17.28-.23.12-.05.25-.08.4-.08.16,0,.3.03.43.09.13.06.23.14.3.25.07.11.11.23.11.37v.03s0,.03-.01.03c0,0-.02.01-.03.01h-.47s-.03,0-.03-.01c0,0-.01-.02-.01-.03h0c0-.06-.03-.12-.08-.17-.05-.05-.13-.07-.22-.07-.06,0-.12.01-.15.04-.04.03-.06.06-.06.11,0,.04.01.07.04.09.03.03.07.05.13.07.06.02.14.05.26.09.02,0,.09.03.21.06.13.04.23.1.32.2.08.1.13.22.13.36s-.03.25-.1.35c-.07.1-.16.17-.29.23-.12.05-.27.08-.43.08s-.32-.03-.44-.08"/>
      <path class="cls-1" d="m231.96,33.41h.47s.03,0,.03.01c0,0,.01.02.01.03v2.02s0,.03-.01.03c0,0-.02.01-.03.01h-.48s-.03,0-.03-.01c0,0-.01-.02-.01-.03v-1.1s0-.01,0-.01c0,0,0,0-.01,0l-.21.33s-.03.03-.05.03h-.23s-.04-.01-.05-.03l-.21-.33s0,0-.01,0c0,0,0,0,0,.01v1.1s0,.03-.01.03c0,0-.02.01-.03.01h-.48s-.03,0-.03-.01c0,0-.01-.02-.01-.03v-2.02s0-.02.01-.03c0,0,.02-.01.03-.01h.47s.04.01.05.03l.38.61s.01.01.02,0l.38-.61s.03-.03.05-.03"/>
      <path class="cls-1" d="m192.83,46.57h-.32v.62h-.32v-1.66h.64c.34,0,.55.23.55.52s-.2.52-.55.52m-.02-.74h-.3v.45h.3c.15,0,.24-.09.24-.23s-.09-.23-.24-.23Z"/>
      <path class="cls-1" d="m194.65,47.2l-.32-.66h-.23v.66h-.32v-1.66h.65c.34,0,.54.23.54.51,0,.23-.14.38-.3.44l.37.71h-.37Zm-.25-1.37h-.31v.44h.31c.14,0,.24-.09.24-.22s-.09-.22-.24-.22Z"/>
      <polygon class="cls-1" points="195.41 47.2 195.41 45.54 196.5 45.54 196.5 45.83 195.74 45.83 195.74 46.22 196.39 46.22 196.39 46.5 195.74 46.5 195.74 46.91 196.5 46.91 196.5 47.2 195.41 47.2"/>
      <path class="cls-1" d="m197.39,47.21c-.25,0-.44-.05-.61-.22l.21-.21c.1.1.25.14.4.14.19,0,.29-.07.29-.21,0-.06-.02-.11-.05-.14-.03-.03-.07-.05-.15-.06l-.2-.03c-.14-.02-.25-.06-.32-.14-.08-.08-.12-.19-.12-.33,0-.3.22-.5.58-.5.23,0,.39.06.54.19l-.2.2c-.1-.1-.23-.11-.34-.11-.17,0-.26.1-.26.21,0,.04.01.09.05.12.03.03.09.06.15.07l.2.03c.15.02.25.06.32.13.09.08.13.2.13.35,0,.32-.27.5-.61.5"/>
      <polygon class="cls-1" points="198.43 47.2 198.43 45.54 199.52 45.54 199.52 45.83 198.76 45.83 198.76 46.22 199.41 46.22 199.41 46.5 198.76 46.5 198.76 46.91 199.52 46.91 199.52 47.2 198.43 47.2"/>
      <polygon class="cls-1" points="200.94 47.2 200.28 46.18 200.28 47.2 199.96 47.2 199.96 45.54 200.25 45.54 200.9 46.55 200.9 45.54 201.23 45.54 201.23 47.2 200.94 47.2"/>
      <polygon class="cls-1" points="202.36 45.83 202.36 47.2 202.04 47.2 202.04 45.83 201.61 45.83 201.61 45.54 202.8 45.54 202.8 45.83 202.36 45.83"/>
      <polygon class="cls-1" points="203.18 47.2 203.18 45.54 204.27 45.54 204.27 45.83 203.5 45.83 203.5 46.22 204.15 46.22 204.15 46.5 203.5 46.5 203.5 46.91 204.27 46.91 204.27 47.2 203.18 47.2"/>
      <path class="cls-1" d="m205.74,47.04c-.11.11-.27.16-.44.16h-.6v-1.66h.6c.17,0,.33.05.44.16.19.19.17.41.17.66s.02.49-.17.68m-.23-1.11c-.06-.07-.13-.1-.24-.1h-.24v1.08h.24c.11,0,.19-.03.24-.1.06-.07.07-.19.07-.44s0-.36-.07-.43Z"/>
      <path class="cls-1" d="m207.71,47.2h-.69v-1.66h.67c.32,0,.51.18.51.47,0,.18-.12.3-.21.34.1.05.23.15.23.37,0,.31-.21.48-.51.48m-.05-1.37h-.32v.38h.32c.14,0,.21-.08.21-.19s-.08-.19-.21-.19Zm.02.67h-.34v.41h.34c.15,0,.22-.09.22-.2s-.07-.2-.22-.2Z"/>
      <polygon class="cls-1" points="209.3 46.52 209.3 47.2 208.97 47.2 208.97 46.52 208.48 45.54 208.83 45.54 209.14 46.21 209.44 45.54 209.79 45.54 209.3 46.52"/>
      <path class="cls-1" d="m217.37,42.14c.08-.02.17-.03.25-.04l.39,2.25c-.09,0-.17.02-.25.04l-.39-2.25Zm-.1,2.48c.08-.06.17-.11.26-.15l-1.13-1.98c-.09.05-.18.1-.26.15l1.13,1.97Zm-.64,1.25c0-.09,0-.17.02-.25h-2.26c0,.08,0,.16,0,.24,0,.07,0,.15,0,.22h2.25c0-.07-.02-.14-.02-.21Zm.04-.34c.03-.14.08-.26.14-.38l-2.12-.78c-.05.13-.1.25-.14.39l2.12.78Zm4.33-2.16l-1.73,1.46s.08.09.12.14l1.73-1.46s-.08-.1-.12-.14Zm-.86-.73c-.06-.04-.12-.07-.18-.11l-1.13,1.97c.06.03.13.07.19.11l1.13-1.97Zm-3.02,2.12l-1.73-1.46c-.08.09-.16.18-.23.27l1.73,1.46c.07-.1.15-.19.23-.27Zm1.35,4.9h0c.23-.02.46-.06.68-.12l-.3-1.7.86,1.5c.24-.11.46-.24.66-.39l-.79-1.38,1.21,1.02c.19-.19.36-.4.51-.63l-1.08-.91,1.32.48c.12-.25.22-.52.28-.8l-1.16-.42h1.23c.02-.14.02-.29.02-.43,0-.17-.01-.33-.03-.5h-2.3c.06.16.09.33.09.51,0,.84-.68,1.53-1.53,1.53-.76,0-1.38-.55-1.51-1.27l-2.12.78c.05.17.1.33.17.48l2.11-.77-1.72,1.46c.11.15.23.3.36.43l1.61-1.36-1.05,1.84c.17.12.34.22.53.31l.99-1.73-.34,1.96c.21.06.43.1.65.12l.32-1.84.32,1.84Zm-.16-5.3c.08,0,.15.02.23.04l.39-2.25c-.07-.02-.15-.03-.23-.04l-.39,2.25Z"/>
      <path class="cls-1" d="m223.68,47.82v-3.9h1.42c.48,0,.85.12,1.12.35.27.23.4.56.4.98,0,.22-.05.42-.16.6-.11.18-.25.33-.41.44l.96,1.53h-1.14l-.68-1.25h-.52v1.25h-.99Zm1.28-3.15h-.3v1.14h.29c.45,0,.67-.19.67-.58s-.22-.57-.66-.57Z"/>
      <polygon class="cls-1" points="227.92 47.82 227.92 44.75 226.73 44.75 226.73 43.92 230.16 43.92 230.16 44.75 228.97 44.75 228.97 47.82 227.92 47.82"/>
      <polygon class="cls-1" points="230.18 47.82 231.54 45.79 230.28 43.92 231.49 43.92 232.18 45.12 232.86 43.92 234.05 43.92 232.77 45.83 234.12 47.82 232.9 47.82 232.11 46.49 231.37 47.82 230.18 47.82"/>
      <path class="cls-4" d="m292.28,22.09c-1.09-.65-2.1-.92-3.31-.92-1.84,0-3.45.94-3.45,2.75,0,1.56,1.11,2.24,2.64,2.48l.55.09c1.21.19,1.84.41,1.84,1.01,0,.67-.74,1.04-1.7,1.04-1.11,0-2.13-.43-2.76-.93l-.9,1.39c.93.75,2.34,1.13,3.65,1.13,1.86,0,3.55-.91,3.55-2.82,0-1.51-1.22-2.17-2.76-2.42l-.49-.08c-1.04-.17-1.79-.37-1.79-1s.68-1.04,1.66-1.04,1.77.31,2.46.73l.82-1.41Z"/>
      <polygon class="cls-4" points="304.79 28.39 300.05 28.39 300.05 26.4 304.53 26.4 304.53 24.82 300.05 24.82 300.05 22.88 304.75 22.88 304.75 21.3 298.32 21.3 298.32 29.98 304.79 29.98 304.79 28.39"/>
      <path class="cls-4" d="m314.49,23.01l1.25,3.35h-2.51l1.26-3.35Zm1.07-1.71h-2.1l-3.37,8.68h1.8l.75-2.02h3.7l.76,2.02h1.84l-3.37-8.68Z"/>
      <path class="cls-4" d="m331,22.09c-1.09-.65-2.1-.92-3.31-.92-1.84,0-3.45.94-3.45,2.75,0,1.56,1.11,2.24,2.64,2.48l.55.09c1.2.19,1.84.41,1.84,1.01,0,.67-.74,1.04-1.7,1.04-1.11,0-2.13-.43-2.76-.93l-.9,1.39c.93.75,2.34,1.13,3.65,1.13,1.86,0,3.55-.91,3.55-2.82,0-1.51-1.22-2.17-2.76-2.42l-.49-.08c-1.04-.17-1.79-.37-1.79-1s.68-1.04,1.66-1.04,1.77.31,2.46.73l.82-1.41Z"/>
      <path class="cls-4" d="m341.14,22.81c1.6,0,2.75,1.15,2.75,2.83s-1.15,2.83-2.75,2.83-2.75-1.15-2.75-2.83,1.16-2.83,2.75-2.83m0-1.66c-2.67,0-4.55,1.91-4.55,4.49s1.88,4.49,4.55,4.49,4.56-1.91,4.56-4.49-1.89-4.49-4.56-4.49Z"/>
      <polygon class="cls-4" points="359.37 21.3 357.64 21.3 357.64 27.1 353.23 21.3 351.61 21.3 351.61 29.98 353.34 29.98 353.34 24.18 357.75 29.98 359.37 29.98 359.37 21.3"/>
      <path class="cls-4" d="m368.71,24.74h1.48l-.38,1.76h-1.48l.38-1.76Zm-2.44-1.38l-.3,1.38h1.26l-.38,1.76h-1.25l-.3,1.38h1.25l-.44,2.09h1.49l.44-2.09h1.48l-.44,2.09h1.49l.44-2.09h1.26l.29-1.38h-1.25l.38-1.76h1.25l.3-1.38h-1.26l.44-2.06h-1.49l-.44,2.06h-1.48l.44-2.06h-1.49l-.44,2.06h-1.25Z"/>
      <path class="cls-4" d="m381.84,25.52c-.87,0-1.51-.59-1.51-1.43s.64-1.43,1.51-1.43,1.51.58,1.51,1.43-.65,1.43-1.51,1.43m-1.98,4.45h2.01l2.4-3.59c.53-.79.82-1.51.82-2.31,0-1.68-1.41-2.93-3.25-2.93s-3.25,1.26-3.25,2.96,1.25,2.88,3,2.88c.15,0,.27,0,.39-.02l-2.12,3.01Z"/>
      <path class="cls-10" d="m287.01,9.47c.75-.77,1.58-1.47,2.71-1.47.85,0,1.53.54,1.53,1.41,0,.62-.31,1.22-.91,1.8l-4.58,4.31v2.78h9.44v-3.28h-4.43l1.92-1.83c1.67-1.57,2.24-2.67,2.24-4.24,0-2.66-1.91-4.36-4.77-4.36-2.63,0-4.25,1.34-5.16,2.42l2.01,2.45Z"/>
      <path class="cls-10" d="m302.34,8.01c1.34,0,2.35,1.23,2.35,3.58s-1.01,3.58-2.35,3.58-2.35-1.23-2.35-3.58,1.01-3.58,2.35-3.58m0-3.4c-3.37,0-6.04,2.61-6.04,6.98s2.66,6.98,6.04,6.98,6.04-2.61,6.04-6.98-2.65-6.98-6.04-6.98Z"/>
      <path class="cls-10" d="m310.89,9.47c.75-.77,1.58-1.47,2.71-1.47.85,0,1.53.54,1.53,1.41,0,.62-.31,1.22-.91,1.8l-4.58,4.31v2.78h9.44v-3.28h-4.43l1.92-1.83c1.67-1.57,2.24-2.67,2.24-4.24,0-2.66-1.91-4.36-4.77-4.36-2.63,0-4.25,1.34-5.16,2.42l2.01,2.45Z"/>
      <polygon class="cls-10" points="329.44 9.36 326.94 9.36 325.89 11.68 325.89 12.87 324.21 12.87 327.98 4.85 324.11 4.85 319.98 13.72 319.98 16.15 325.89 16.15 325.89 18.31 329.44 18.31 329.44 16.15 330.96 16.15 330.96 12.87 329.44 12.87 329.44 9.36"/>
      <path class="cls-10" d="m342.18,37.14c.75-.77,1.58-1.47,2.71-1.47.85,0,1.53.54,1.53,1.41,0,.62-.31,1.22-.91,1.8l-4.58,4.31v2.78h9.44v-3.28h-4.43l1.92-1.83c1.67-1.57,2.24-2.67,2.24-4.24,0-2.66-1.91-4.36-4.77-4.36-2.63,0-4.25,1.34-5.16,2.42l2.01,2.45Z"/>
      <path class="cls-10" d="m357.51,35.67c1.34,0,2.35,1.23,2.35,3.58s-1.01,3.58-2.35,3.58-2.35-1.23-2.35-3.58,1.01-3.58,2.35-3.58m0-3.4c-3.37,0-6.04,2.61-6.04,6.98s2.66,6.98,6.04,6.98,6.04-2.61,6.04-6.98-2.65-6.98-6.04-6.98Z"/>
      <path class="cls-10" d="m366.06,37.14c.75-.77,1.58-1.47,2.71-1.47.85,0,1.53.54,1.53,1.41,0,.62-.31,1.22-.91,1.8l-4.58,4.31v2.78h9.44v-3.28h-4.43l1.92-1.83c1.67-1.57,2.24-2.67,2.24-4.24,0-2.66-1.91-4.36-4.77-4.36-2.63,0-4.25,1.34-5.16,2.42l2.01,2.45Z"/>
      <path class="cls-10" d="m384.48,32.52h-8.12l-.18,7.95h3.41c1.53,0,2.08.5,2.08,1.21,0,.88-.58,1.33-1.62,1.33-1.34,0-2.7-.72-3.3-1.22l-1.61,2.68c1.06.96,2.83,1.75,4.93,1.75,3.11,0,5.28-1.9,5.28-4.76,0-2.51-1.79-4.05-4.88-4.05h-1.13l.05-1.64h5.11v-3.24Z"/>
    </g>
  </g>
</svg>